<?xml version="1.0" encoding="UTF-8" standalone="no"?> <svg xmlns="http://www.w3.org/2000/svg" viewBox="0 0 48 48"><title>Run</title><g id="Jogging"><path d="M6.858,14.477,27.079,35.46A5.032,5.032,0,0,0,30.689,37H43.805a5,5,0,0,0-2.411-3.015L36.647,31.4a6.988,6.988,0,0,1-3.6-5.406c-.017,0-.032.01-.05.01H29a1,1,0,0,1,0-2h4V22H29a1,1,0,0,1,0-2h4V18H29a1,1,0,0,1,0-2h4V14a3,3,0,0,0-3-3H24a3,3,0,0,1-3-3V7a3,3,0,0,0-3-3h-.131a3.011,3.011,0,0,0-2.193.953L6.822,14.439Z"/><path d="M25.638,36.846,5.511,15.96A7,7,0,0,0,6.2,24.788l14.537,15.2A13.059,13.059,0,0,0,30.128,44H39a5.006,5.006,0,0,0,5-5H30.689A7.035,7.035,0,0,1,25.638,36.846Z"/><path d="M18,43H5a1,1,0,0,1,0-2H18a1,1,0,0,1,0,2Z"/><path d="M13,38H5a1,1,0,0,1,0-2h8a1,1,0,0,1,0,2Z"/><path d="M8,33H5a1,1,0,0,1,0-2H8a1,1,0,0,1,0,2Z"/></g></svg>