<?xml version="1.0" encoding="UTF-8" standalone="no"?> <svg width="512" height="512" viewBox="0 0 512 512" fill="none" xmlns="http://www.w3.org/2000/svg">
<g clip-path="url(#clip0_30:414)">
<path d="M362.458 308.294L415.8 297.628C429.667 294.851 441.863 286.679 449.707 274.911C457.55 263.142 460.397 248.741 457.623 234.873C454.849 221.005 446.681 208.807 434.914 200.961C423.148 193.115 408.746 190.263 394.878 193.034L367.586 198.492L302.165 140.338C315.932 132.944 327.036 121.422 333.918 107.392C340.8 93.3619 343.113 77.5284 340.533 62.1158C337.954 46.7032 330.61 32.486 319.535 21.4617C308.459 10.4373 294.208 3.15975 278.784 0.651361C263.359 -1.85703 247.537 0.529805 233.539 7.47655C219.54 14.4233 208.07 25.5809 200.74 39.3818C193.409 53.1827 190.586 68.9334 192.668 84.4212C194.749 99.9089 201.631 114.355 212.345 125.731L148.424 139.931C136.92 142.511 126.587 148.81 119.024 157.853L65.6958 221.853C61.2124 227.234 57.8327 233.444 55.7496 240.131C53.6665 246.818 52.9208 253.849 53.5551 260.824C54.1894 267.799 56.1913 274.58 59.4465 280.781C62.7017 286.983 67.1464 292.482 72.5268 296.965C77.9073 301.449 84.1181 304.828 90.8047 306.911C97.4913 308.995 104.523 309.74 111.498 309.106C118.472 308.472 125.254 306.47 131.455 303.215C137.656 299.959 143.155 295.515 147.639 290.134L177.1 254.784L171.2 331.477L151.033 376.852L82.8178 410.961C72.0717 416.337 63.4553 425.183 58.3649 436.067C53.2745 446.951 52.0083 459.235 54.7714 470.929C57.5346 482.622 64.1652 493.04 73.5889 500.495C83.0126 507.949 94.6772 512.003 106.693 512C114.964 511.987 123.12 510.058 130.521 506.365L215.854 463.7C226.91 458.159 235.703 448.956 240.734 437.658L257.713 399.458L292.947 422.948L340.6 489.664C344.656 495.4 349.806 500.277 355.753 504.017C361.7 507.757 368.327 510.285 375.254 511.456C382.18 512.627 389.27 512.418 396.116 510.841C402.962 509.265 409.429 506.351 415.145 502.268C420.862 498.184 425.715 493.012 429.427 487.048C433.139 481.083 435.636 474.444 436.775 467.512C437.913 460.58 437.671 453.491 436.062 446.653C434.454 439.815 431.51 433.362 427.4 427.664L374.068 353C370.314 347.739 365.631 343.206 360.25 339.625L322.3 314.32L323.326 300.961C334.944 308.34 348.956 310.966 362.458 308.294V308.294ZM266.667 42.6642C272.996 42.6642 279.183 44.541 284.445 48.0572C289.707 51.5734 293.809 56.5711 296.231 62.4183C298.653 68.2656 299.287 74.6997 298.052 80.9071C296.817 87.1145 293.77 92.8163 289.294 97.2916C284.819 101.767 279.117 104.815 272.91 106.049C266.702 107.284 260.268 106.65 254.421 104.228C248.574 101.806 243.576 97.7048 240.06 92.4425C236.544 87.1801 234.667 80.9932 234.667 74.6642C234.676 66.1801 238.05 58.0462 244.05 52.047C250.049 46.0479 258.183 42.6735 266.667 42.6642ZM288.24 342.893L336.589 375.127C337.664 375.842 338.599 376.748 339.349 377.799L392.682 452.466C393.496 453.606 394.078 454.896 394.394 456.261C394.709 457.626 394.753 459.04 394.523 460.422C394.292 461.804 393.792 463.127 393.05 464.315C392.308 465.504 391.34 466.535 390.199 467.349C389.059 468.163 387.77 468.745 386.405 469.06C385.04 469.376 383.626 469.42 382.244 469.19C380.862 468.959 379.539 468.459 378.35 467.717C377.162 466.975 376.131 466.006 375.317 464.866L325.395 394.966C323.894 392.862 322.021 391.049 319.869 389.617L260.327 349.924C257.742 348.201 254.812 347.063 251.742 346.59C248.672 346.117 245.536 346.32 242.552 347.185C239.569 348.05 236.81 349.557 234.469 351.599C232.128 353.641 230.262 356.17 229 359.008L201.74 420.341C200.737 422.597 198.98 424.433 196.771 425.534L111.438 468.2C109.967 468.946 108.342 469.335 106.693 469.335C104.287 469.342 101.95 468.535 100.061 467.047C98.1713 465.558 96.8406 463.474 96.2846 461.133C95.7287 458.793 95.9802 456.333 96.9983 454.154C98.0163 451.974 99.7412 450.203 101.893 449.127L176.961 411.591C181.386 409.378 184.904 405.696 186.914 401.174L211.685 345.445C212.674 343.22 213.274 340.842 213.461 338.414L222.784 217.185C223.041 213.862 222.515 210.525 221.248 207.441C219.982 204.358 218.011 201.614 215.492 199.431C212.974 197.247 209.979 195.684 206.747 194.867C203.515 194.05 200.137 194.002 196.884 194.727L172.962 200.045C168.357 201.067 164.221 203.588 161.202 207.212L114.858 262.827C113.856 264.031 112.601 264.999 111.182 265.662C109.763 266.326 108.216 266.669 106.65 266.666C104.624 266.662 102.642 266.082 100.934 264.993C99.2259 263.903 97.8635 262.35 97.0058 260.515C96.1481 258.68 95.8306 256.639 96.0904 254.63C96.3502 252.621 97.1765 250.728 98.4728 249.171L151.806 185.171C153.319 183.362 155.385 182.101 157.686 181.582L253.644 160.259C255.298 159.899 257.014 159.932 258.654 160.354C260.294 160.776 261.812 161.577 263.087 162.691L347.176 237.436C349.639 239.634 352.58 241.227 355.766 242.09C358.951 242.954 362.294 243.063 365.53 242.41L403.238 234.868C406.01 234.32 408.887 234.894 411.236 236.464C413.586 238.033 415.217 240.471 415.772 243.242C416.326 246.013 415.759 248.891 414.195 251.245C412.63 253.598 410.196 255.234 407.426 255.795L354.082 266.462C352.465 266.782 350.795 266.723 349.204 266.291C347.613 265.86 346.144 265.066 344.91 263.972L319.467 241.347C316.497 238.707 312.849 236.949 308.933 236.271C305.018 235.593 300.991 236.021 297.306 237.508C293.621 238.996 290.425 241.482 288.077 244.688C285.73 247.894 284.324 251.692 284.019 255.654L278.8 323.508C278.509 327.287 279.23 331.074 280.89 334.482C282.549 337.889 285.086 340.792 288.24 342.893V342.893Z" fill="black"/>
</g>
<defs>
<clipPath id="clip0_30:414">
<rect width="512" height="512" fill="white"/>
</clipPath>
</defs>
</svg>
